<?xml version="1.0" encoding="utf-8"?>
<!-- Generator: Adobe Illustrator 27.2.0, SVG Export Plug-In . SVG Version: 6.00 Build 0)  -->
<svg version="1.1" id="Capa_1" xmlns="http://www.w3.org/2000/svg" xmlns:xlink="http://www.w3.org/1999/xlink" x="0px" y="0px"
	 viewBox="0 0 1200 1200" style="enable-background:new 0 0 1200 1200;" xml:space="preserve">
<style type="text/css">
	.st0{fill:#FDF5E4;}
	.st1{fill:#FDEFCB;}
	.st2{fill:#EF9879;}
	.st3{clip-path:url(#SVGID_00000052791414739155261700000011271706485595730055_);fill:#FDEFCB;}
	.st4{clip-path:url(#SVGID_00000052791414739155261700000011271706485595730055_);fill:#FCEFCF;}
	.st5{clip-path:url(#SVGID_00000052791414739155261700000011271706485595730055_);fill:#FBEFD2;}
	.st6{clip-path:url(#SVGID_00000052791414739155261700000011271706485595730055_);fill:#FAEFD5;}
	.st7{clip-path:url(#SVGID_00000052791414739155261700000011271706485595730055_);fill:#F9EED7;}
	.st8{clip-path:url(#SVGID_00000052791414739155261700000011271706485595730055_);fill:#F8EED9;}
	.st9{clip-path:url(#SVGID_00000052791414739155261700000011271706485595730055_);fill:#F8EEDB;}
	.st10{clip-path:url(#SVGID_00000052791414739155261700000011271706485595730055_);fill:#F7EEDD;}
	.st11{clip-path:url(#SVGID_00000052791414739155261700000011271706485595730055_);fill:#F7EEDE;}
	.st12{clip-path:url(#SVGID_00000052791414739155261700000011271706485595730055_);fill:#F6EEDF;}
	.st13{clip-path:url(#SVGID_00000052791414739155261700000011271706485595730055_);fill:#F6EEE0;}
	.st14{clip-path:url(#SVGID_00000052791414739155261700000011271706485595730055_);fill:#F6EEE1;}
	.st15{clip-path:url(#SVGID_00000052791414739155261700000011271706485595730055_);fill:#F5EEE2;}
	.st16{clip-path:url(#SVGID_00000052791414739155261700000011271706485595730055_);fill:#F5EEE3;}
	.st17{clip-path:url(#SVGID_00000047782589507805467840000014919757915490647445_);fill:#FDEFCB;}
	.st18{clip-path:url(#SVGID_00000047782589507805467840000014919757915490647445_);fill:#FCEFCF;}
	.st19{clip-path:url(#SVGID_00000047782589507805467840000014919757915490647445_);fill:#FBEFD2;}
	.st20{clip-path:url(#SVGID_00000047782589507805467840000014919757915490647445_);fill:#FAEFD5;}
	.st21{clip-path:url(#SVGID_00000047782589507805467840000014919757915490647445_);fill:#F9EED7;}
	.st22{clip-path:url(#SVGID_00000047782589507805467840000014919757915490647445_);fill:#F8EED9;}
	.st23{clip-path:url(#SVGID_00000047782589507805467840000014919757915490647445_);fill:#F8EEDB;}
	.st24{clip-path:url(#SVGID_00000047782589507805467840000014919757915490647445_);fill:#F7EEDD;}
	.st25{clip-path:url(#SVGID_00000047782589507805467840000014919757915490647445_);fill:#F7EEDE;}
	.st26{clip-path:url(#SVGID_00000047782589507805467840000014919757915490647445_);fill:#F6EEDF;}
	.st27{clip-path:url(#SVGID_00000047782589507805467840000014919757915490647445_);fill:#F6EEE0;}
	.st28{clip-path:url(#SVGID_00000047782589507805467840000014919757915490647445_);fill:#F6EEE1;}
	.st29{clip-path:url(#SVGID_00000047782589507805467840000014919757915490647445_);fill:#F5EEE2;}
	.st30{clip-path:url(#SVGID_00000047782589507805467840000014919757915490647445_);fill:#F5EEE3;}
	.st31{fill:#EDB027;}
	.st32{fill:#A7021F;}
	.st33{clip-path:url(#SVGID_00000036930659584287479820000017157638210311706767_);fill:#FFFFFF;}
	.st34{clip-path:url(#SVGID_00000036930659584287479820000017157638210311706767_);fill:#FEFDFB;}
	.st35{clip-path:url(#SVGID_00000036930659584287479820000017157638210311706767_);fill:#FCFBF8;}
	.st36{clip-path:url(#SVGID_00000036930659584287479820000017157638210311706767_);fill:#FBF9F5;}
	.st37{clip-path:url(#SVGID_00000036930659584287479820000017157638210311706767_);fill:#FAF7F2;}
	.st38{clip-path:url(#SVGID_00000036930659584287479820000017157638210311706767_);fill:#FAF6F0;}
	.st39{clip-path:url(#SVGID_00000036930659584287479820000017157638210311706767_);fill:#F9F5EE;}
	.st40{clip-path:url(#SVGID_00000036930659584287479820000017157638210311706767_);fill:#F8F3EC;}
	.st41{clip-path:url(#SVGID_00000036930659584287479820000017157638210311706767_);fill:#F8F3EA;}
	.st42{clip-path:url(#SVGID_00000036930659584287479820000017157638210311706767_);fill:#F7F2E9;}
	.st43{clip-path:url(#SVGID_00000036930659584287479820000017157638210311706767_);fill:#F7F1E8;}
	.st44{clip-path:url(#SVGID_00000036930659584287479820000017157638210311706767_);fill:#F6F0E7;}
	.st45{clip-path:url(#SVGID_00000036930659584287479820000017157638210311706767_);fill:#F6F0E6;}
	.st46{clip-path:url(#SVGID_00000036930659584287479820000017157638210311706767_);fill:#F6EFE5;}
	.st47{clip-path:url(#SVGID_00000036930659584287479820000017157638210311706767_);fill:#F5EFE4;}
	.st48{clip-path:url(#SVGID_00000036930659584287479820000017157638210311706767_);fill:#F5EEE4;}
	.st49{clip-path:url(#SVGID_00000036930659584287479820000017157638210311706767_);fill:#F5EEE3;}
	.st50{opacity:0.77;}
	.st51{fill:#F5EEE3;}
	.st52{fill:#74130A;}
	.st53{fill:#063844;}
	.st54{fill:#4D6CAF;}
	.st55{fill:#B21107;}
	.st56{fill:#FAC70C;}
	.st57{fill:#CD7571;}
	.st58{fill:#FEFEFE;}
	.st59{fill:#060606;}
	.st60{fill:#FBFBFB;}
	.st61{fill:#030303;}
	.st62{fill:#FDFDFD;}
	.st63{fill:#FFFFFF;}
	.st64{fill:none;stroke:#FFFFFF;stroke-width:5;stroke-miterlimit:10;}
	.st65{fill:#B12C1B;}
	.st66{fill:#4B82C3;}
	.st67{fill:#B12B1A;}
	.st68{fill:#FFD51E;}
	.st69{fill:#4C82C3;}
	.st70{fill:#FFD51F;}
	.st71{fill:#4E84C4;}
	.st72{fill:#FFD622;}
	.st73{fill:#E1AB9D;}
	.st74{fill:#FFE891;}
	.st75{fill:#A2DAEE;}
	.st76{fill:#FCFDFE;}
	.st77{fill:none;stroke:#FFFFFF;stroke-width:10;stroke-miterlimit:8;}
	.st78{fill:none;stroke:#B21107;stroke-width:5;stroke-miterlimit:10;}
	.st79{fill:#74130A;stroke:#B21107;stroke-width:2;stroke-miterlimit:10;}
	.st80{fill:#0AC5C0;}
	.st81{fill:#62D1BC;}
	.st82{fill:#FEF7EA;}
	.st83{fill:#C0FE75;}
	.st84{fill:#88E866;}
	.st85{opacity:0.46;fill:#62D1BC;}
	.st86{fill:#DC7906;}
	.st87{fill:#1BBBC0;}
	.st88{fill:#B4D6FF;}
	.st89{fill:none;stroke:#B4D6FF;stroke-width:8;stroke-miterlimit:10;}
	.st90{fill:#4C82C3;stroke:#000000;stroke-width:0.15;stroke-miterlimit:10;}
	.st91{font-family:'Freight-SansBold';}
	.st92{font-size:76.3693px;}
	.st93{fill:#FFD51E;stroke:#000000;stroke-width:0.15;stroke-miterlimit:10;}
	.st94{fill:#B21107;stroke:#000000;stroke-width:0.15;stroke-miterlimit:10;}
	.st95{font-size:88.9464px;}
</style>
<g>
	<path class="st55" d="M928.92,429.64l-57.64-1.13l11.45-23.39c-22.47-17.95-60.35-49.5-64.46-87.61
		c-3.11-28.82,6.63-55.68,27.45-75.88c-2.9-7.92-4.54-16.07-4.89-24.29c-0.04-0.88-0.79-21.64,9.9-36.97
		c1.61-2.31,8.33-5.85,14.03-5.77c4.66,0.05,6.56,2.07,7.98,3.95c0.14,0.18,0.27,0.37,0.44,0.56c8,9.07,10.73,31.57,11.58,42.21
		c5.69-1.58,13.36-3.07,19.62-2.85c9.29,0.32,18.85,1.98,26.45,4.51c0.53-13.21,2.96-22.95,4.81-30.32
		c3.48-13.92,7.83-21.01,13.7-22.29c9.27-2.04,19.08,8.51,21.65,19.3c5.12,21.5,1.17,42.63-4.2,55.53
		c6.5,6.29,11.47,13.33,14.79,20.99c13.5,28.71,13.19,53.68-0.97,78.55c-11.95,21-32.4,40.05-59.92,64.31L928.92,429.64z
		 M885.05,420.1l30.95,0.61l-5.66-14.14l2.3-2.02c28.04-24.67,48.79-43.7,60.41-64.11c12.82-22.53,13.02-44.31,0.63-70.63
		l-0.06-0.13c-3.2-7.41-8.24-14.21-14.97-20.19l-2.45-2.18l1.42-2.95c1.2-2.48,11.49-25.02,4.9-52.7
		c-1.88-7.9-8.33-13.51-11.35-12.84c-0.03,0.01-3.51,1.39-7.14,15.92c-2.13,8.51-4.77,19.1-4.65,34.52l0.06,6.95l-6.27-3
		c-5.28-2.53-16.08-5.64-29.11-6.09c-6.95-0.24-17.09,2.28-21.76,4.06l-5.76,2.2l-0.12-6.17c-0.16-8.2-2.87-34.56-9.77-42.38
		c-0.32-0.36-0.6-0.72-0.87-1.08c-0.1-0.14-0.24-0.31-0.33-0.42c-0.13-0.03-0.38-0.06-0.81-0.07c-0.02,0-0.04,0-0.06,0
		c-2.56,0-5.94,1.65-6.99,2.4c-7.27,10.74-8.32,26.19-8.1,31.29c0.35,8.18,2.14,16.32,5.33,24.18l1.11,2.74l-2.72,2.58
		c-19.86,18.46-29.21,43.36-26.32,70.11c3.89,36.09,42.97,67.21,63.97,83.93l2.73,2.17L885.05,420.1z M857.42,185.81L857.42,185.81
		L857.42,185.81z"/>
	<path class="st55" d="M859.15,419.54c-2.25,0-4.42-0.17-6.42-0.49c-8.16-1.32-19.13-4.33-20.11-15.17
		c-0.51-5.65,1.63-10.61,5.88-13.59c8.7-6.11,25.14-3.57,48.87,7.53l3.37,1.58l-1.05,3.57
		C886.27,414.58,871.45,419.54,859.15,419.54z M850.72,395.69c-4.01,0-6.16,0.94-7.24,1.7c-2.13,1.49-2.38,3.93-2.22,5.7
		c0.16,1.75,0.49,5.39,12.86,7.39c8.1,1.31,20.51-0.79,25.45-6.68C865.15,397.45,856.2,395.69,850.72,395.69z"/>
	<path class="st55" d="M951.13,423.87c-13.38,0-29.55-4.93-33.29-16.44l-1.23-3.78l3.66-1.55c26.78-11.35,44.98-13.69,54.09-6.98
		c4.09,3.01,6.12,7.8,5.59,13.14c-1.08,10.74-12.27,13.73-21.9,15.14C955.9,423.71,953.56,423.87,951.13,423.87z M928.23,408.2
		c5.64,5.87,19.49,7.94,28.56,6.61c13.98-2.05,14.36-5.81,14.52-7.42c0.23-2.31-0.48-4.09-2.1-5.29
		C966.43,400.05,956.96,396.74,928.23,408.2z"/>
	<g>
		<path class="st69" d="M386.13,552.14c-8.57,2.48-16.55,7.6-23.06,14.81l-6.23,6.9l-0.71-9.27c-0.66-8.62-4.51-10.91-7.35-11.89
			c-6.45-2.21-16.12,0.52-19.41,7.48l-4.29,9.09l-3.11-9.56c-1.26-3.86-5.17-13.31-14.37-17.71c-6.85-3.27-15.75-3.26-23.81,0.04
			c-7.62,3.12-13.35,8.64-15.71,15.14c-2.82,7.76,1,15.48,2.84,19.19c0.21,0.42,0.39,0.78,0.53,1.09l2.03,4.33l-4.63,1.22
			c-14.4,3.81-21.7,10.48-21.7,19.85c0,6.34,8.71,16.61,22.9,18.92l8.34,1.36l-6.34,5.58c-2.29,2.02-6.37,6.43-7.93,13.36
			c-1.59,7.08,0.3,12.91,1.57,15.76l0.03,0.07c0.74,1.76,1.59,3.3,2.58,4.63l175.64-11.71c1.09-0.07,1.92-1,1.87-2.08l-3.27-80.22
			c-3.01-2.23-6.29-4.41-9.79-6.47C422.75,556.2,403.44,547.13,386.13,552.14z"/>
		<path class="st69" d="M256.31,640.31c1.16-5.17,3.39-9.28,5.66-12.35c-13.89-4.71-22.81-15.92-22.81-25.11
			c0-5.65,1.8-10.71,5.35-15.04c3.88-4.74,9.83-8.48,17.72-11.15c-2.26-5.17-4.85-13.44-1.66-22.22c3.13-8.62,10.49-15.83,20.2-19.8
			c10.26-4.2,21.29-4.14,30.27,0.15c7.98,3.82,12.85,10.36,15.68,15.73c6.64-6.24,16.94-8.03,24.66-5.38
			c4.05,1.39,7.2,3.87,9.37,7.38c0.71,1.15,1.31,2.41,1.81,3.79c6.38-5.55,13.66-9.59,21.38-11.83c18.98-5.49,41.1,2.74,58.19,14.01
			l-1.38-33.77c-0.04-0.93-0.7-1.7-1.61-1.89l-11.7-2.34c-0.94-0.19-1.61-1.01-1.61-1.97v-35.03c0-1.11-0.9-2.01-2.01-2.01H319.81
			c-0.9,0-1.68-0.59-1.93-1.46l-2.65-9.27c-0.24-0.85-1.01-1.44-1.89-1.45l-93.85-1.83c-1.09-0.02-1.97-0.91-1.97-2.01v-6.27
			c0-1.11-0.9-2.01-2.01-2.01h-25.38c-1.11,0-2.01,0.9-2.01,2.01v71.56c0,1.08-0.85,1.97-1.93,2.01l-19.02,0.7
			c-1.28,0.05-2.18,1.26-1.87,2.5l32.82,129.61c0.24,0.94,1.11,1.57,2.08,1.51l59.1-3.94c-0.34-0.67-0.66-1.37-0.96-2.09
			C256.68,657.28,254.21,649.61,256.31,640.31z"/>
		<path class="st69" d="M460.93,623.15c8.99-10.97,15.05-21.85,8.18-37.61c-3.24-7.45-13.57-18.2-27.01-27.06l0.41,10.04
			c10.1,7.47,17.18,15.38,19.28,20.2c5.24,12.04,1.3,19.7-9.53,32.34l-2.74,3.19l3.33,2.57c5.82,4.49,8.72,8.52,8.39,11.66
			c-0.41,3.9-2.31,11.07-6.32,18.45c-5.05,9.29-11.91,16.34-20.4,20.94c-20.11,10.9-47.91,7.41-82.63-10.36l-2.86-1.46l-2.04,2.48
			c-3.04,3.69-11.59,12.45-25.44,14.05c-13.99,1.62-24.17-6.12-29.63-10.27c-2.65-2.02-4.12-3.13-6.1-3.05
			c-8.36,0.31-13.86-1.74-17.54-6.72l-8.95,0.6c4.9,9.73,13.39,14.36,25.87,14.13c0.5,0.34,1.25,0.92,1.89,1.41
			c5.35,4.07,15.94,12.12,30.66,12.12c1.53,0,3.1-0.09,4.72-0.27c14.18-1.64,23.73-9.45,28.55-14.5
			c18.74,9.28,35.89,14.57,51.01,15.74c2.16,0.17,4.29,0.25,6.37,0.25c11.16,0,21.2-2.38,29.93-7.11
			c9.73-5.27,17.89-13.62,23.61-24.15c4.57-8.4,6.74-16.58,7.24-21.43C469.74,633.95,467.03,628.64,460.93,623.15z"/>
	</g>
	<path class="st71" d="M351.05,717.55c-3.52-0.52-6.7-1.83-9.33-4.26c-5.84-5.4-5.52-13.66,0.69-18.65
		c6.37-5.12,16.37-5.1,22.71,0.03c6.6,5.34,6.43,14.31-0.38,19.5c-2.46,1.88-5.26,2.98-8.33,3.38
		C354.62,717.55,352.84,717.55,351.05,717.55z M352.17,697.37c-2.46,0.26-4.65,1.15-6.4,2.92c-2.4,2.41-2.42,5.45-0.07,7.89
		c1.58,1.65,3.56,2.55,5.8,2.92c1.49,0.55,2.98,0.55,4.47,0c2.05-0.32,3.89-1.11,5.43-2.51c2.91-2.64,2.89-6.11-0.08-8.71
		c-1.71-1.5-3.75-2.3-6.02-2.52C354.25,696.9,353.21,696.9,352.17,697.37z"/>
	<path class="st71" d="M319.14,727.81c-2.63-0.34-5.04-1.24-7.12-2.88c-4.89-3.84-5.68-10.54-1.89-15.57
		c5.63-7.48,17.77-7.49,23.46-0.07c3.69,4.81,3.39,12.66-3.02,16.46c-1.88,1.12-3.89,1.8-6.05,2.06
		C322.72,727.82,320.93,727.82,319.14,727.81z M323.36,710.3c-0.9-0.5-1.81-0.5-2.73-0.03c-2.59,0.32-4.66,1.49-5.89,3.84
		c-1.21,2.31-0.53,4.68,1.67,6.05c0.96,0.6,1.97,1.1,3.14,1.15c1.51,0.54,3.02,0.55,4.54,0.01c0.84,0.01,1.6-0.31,2.34-0.65
		c3.35-1.53,4.14-4.93,1.79-7.77C326.97,711.39,325.31,710.56,323.36,710.3z"/>
	<path class="st71" d="M295.61,714.79c1.94,0.32,3.83,0.77,5.51,1.89c4.98,3.32,4.82,10.56-0.31,13.64
		c-1.49,0.89-3.11,1.37-4.81,1.64c-1.91,0-3.81,0-5.72,0.01c-1.82-0.3-3.57-0.76-5.14-1.8c-5.14-3.39-4.88-10.81,0.49-13.84
		c1.45-0.82,3.05-1.19,4.66-1.51C292.06,714.81,293.84,714.8,295.61,714.79z M290.72,725.52c1.49,0.52,2.98,0.51,4.48,0.03
		c0.71-0.02,1.37-0.25,1.99-0.56c0.66-0.32,1.1-0.84,1.08-1.64c-0.02-0.71-0.43-1.18-1.02-1.48c-0.62-0.32-1.27-0.56-1.98-0.58
		c-1.54-0.53-3.08-0.54-4.61,0.03c-0.18,0.02-0.38,0.01-0.55,0.07c-1.62,0.51-2.24,1.14-2.15,2.17c0.08,0.94,0.94,1.63,2.4,1.93
		C290.47,725.51,290.6,725.51,290.72,725.52z"/>
	<path class="st71" d="M257.15,727.01c0.73-3.18,2.78-5.01,5.9-5.71c2.91-0.66,5.79-0.52,8.59,0.53c3.93,1.48,5.86,4.95,4.99,8.87
		c-0.47,2.11-1.77,3.65-3.63,4.63c-3.73,1.98-7.65,2.19-11.56,0.69c-2.86-1.1-4.25-3.47-4.51-6.48c-0.06-0.69,0.05-1.39,0.08-2.08
		C257.16,727.34,257.21,727.19,257.15,727.01z M266.15,727.38c-0.34,0.02-1.11-0.07-1.83,0.2c-0.57,0.22-0.95,0.59-0.98,1.25
		c-0.03,0.73,0.32,1.26,0.99,1.41c1.81,0.41,3.63,0.42,5.33-0.42c0.97-0.48,0.95-1.3-0.01-1.85
		C268.71,727.43,267.63,727.36,266.15,727.38z"/>
	<g>
		<path class="st68" d="M619.23,664.24c-29.17,0-58.34,0-87.51,0c-16.97,0-31.16-12.06-33.86-28.83c-0.35-2.15-0.46-4.37-0.46-6.55
			c-0.03-41.18-0.02-82.36-0.02-123.54c0-9.4,2.88-17.73,9.43-24.61c6.01-6.32,13.37-9.86,22.11-10.54
			c4.95-0.38,9.91-0.16,14.86-0.22c1.68-0.02,1.71,0.04,1.85,1.74c0.94,11.19,3.61,21.92,8.59,32.01
			c7.49,15.18,18.91,26.23,34.67,32.59c1.49,0.6,2.11,1.41,2.3,2.95c0.98,7.72,2.05,15.44,3.08,23.16
			c0.51,3.78,1.04,7.55,1.49,11.34c0.13,1.05,0.61,1.41,1.59,1.33c0.4-0.03,0.81,0,1.22,0c15.2,0,30.39,0,45.59,0
			c0.41,0,0.82-0.04,1.22,0.01c1.13,0.13,1.52-0.37,1.67-1.49c0.72-5.3,1.54-10.59,2.31-15.89c0.88-6.1,1.73-12.21,2.61-18.31
			c0.16-1.12,0.44-2.01,1.75-2.6c19.23-8.7,31.94-23.2,38.22-43.33c2.02-6.46,3.07-13.09,3.37-19.85c0.19-4.36,0.1-3.63,3.83-3.66
			c4.79-0.03,9.58-0.15,14.33,0.75c15.36,2.93,27,16.76,27.25,32.44c0.06,3.65,0.01,7.31,0.01,10.96c0,38.66-0.08,77.32,0.04,115.98
			c0.05,13.71-8.73,27.38-22.8,32.24c-3.63,1.25-7.36,1.91-11.22,1.9C677.57,664.23,648.4,664.24,619.23,664.24z M597.67,603.67
			c0.4,0.03,0.81,0.09,1.21,0.09c15.33-0.01,30.67-0.02,46-0.03c0.24,0,0.49-0.02,0.73,0c1.09,0.1,1.4-0.47,1.37-1.46
			c-0.04-1.38-0.03-2.76-0.01-4.14c0.02-0.89-0.31-1.38-1.26-1.34c-0.49,0.02-0.97-0.01-1.46-0.01c-14.85,0-29.69,0-44.54,0
			c-0.49,0-0.97,0.02-1.46,0.01c-0.81-0.02-1.2,0.37-1.17,1.18c0.05,1.78-0.2,3.56,0.17,5.33
			C597.21,603.64,597.37,603.74,597.67,603.67z M621.82,582.87c-2.68,0-5.36,0-8.04,0c-4.87,0-9.74-0.01-14.61,0
			c-2.32,0-2.33,0.02-2.34,2.43c0,0.81-0.01,1.62,0,2.43c0.04,2,0.04,2.04,2.03,2.04c15.35,0.01,30.69,0.01,46.04,0
			c1.91,0,1.92-0.04,1.96-1.85c0.02-0.97,0.01-1.95,0-2.92c-0.02-2.11-0.03-2.13-2.14-2.13
			C637.09,582.87,629.45,582.87,621.82,582.87z M622.07,616.44c6.99,0,13.98,0,20.97,0c3.95,0,3.96,0,3.94-4
			c-0.02-3.08,0.33-2.79-2.68-2.79c-14.87-0.01-29.74,0-44.61,0c-0.49,0-0.98,0.02-1.46,0c-0.83-0.04-1.16,0.37-1.15,1.17
			c0.02,1.14-0.01,2.27,0,3.41c0.02,2.19,0.03,2.2,2.33,2.21C606.95,616.45,614.51,616.44,622.07,616.44z M621.48,629.32
			C621.48,629.32,621.48,629.32,621.48,629.32c2.35,0,4.69-0.03,7.04,0.01c1.03,0.02,1.48-0.39,1.42-1.42
			c-0.04-0.89,0-1.78-0.01-2.67c-0.01-2.54-0.01-2.55-2.45-2.55c-3.32-0.01-6.64-0.06-9.95,0.02c-1.5,0.04-3.41-0.74-4.4,0.42
			c-0.93,1.09-0.28,2.95-0.3,4.47c-0.02,1.66,0.05,1.69,1.84,1.71C616.95,629.35,619.22,629.32,621.48,629.32z"/>
		<path class="st68" d="M722.01,367.57c0.49,0.09,0.72,0.44,0.99,0.73c1.37,1.49,2.69,3.05,4.13,4.47c0.88,0.87,0.71,1.39-0.13,2.14
			c-4.92,4.48-9.8,9.01-14.7,13.51c-9.74,8.95-19.49,17.89-29.23,26.84c-1.02,0.93-2.07,1.83-3.06,2.79c-0.62,0.6-1.07,0.5-1.61-0.1
			c-1.46-1.63-2.93-3.26-4.45-4.83c-0.69-0.71-0.55-1.19,0.12-1.79c2.17-1.95,4.31-3.95,6.46-5.92
			c13.27-12.18,26.55-24.36,39.83-36.53C720.88,368.39,721.28,367.72,722.01,367.57z"/>
		<path class="st68" d="M654.48,400.99c-1.38-0.55-2.88-1.15-4.39-1.74c-3.15-1.24-3.14-1.23-1.88-4.45
			c7.19-18.34,14.39-36.67,21.54-55.03c1.2-3.08,1.31-2.28,3.42-1.53c1.3,0.46,2.57,0.98,3.86,1.49c2.01,0.8,2.03,0.81,1.26,2.79
			c-1.64,4.23-3.31,8.45-4.96,12.68c-5.67,14.49-11.35,28.99-17.02,43.48c-0.24,0.6-0.46,1.21-0.72,1.81
			C655.41,400.91,655.08,401.1,654.48,400.99z"/>
		<path class="st68" d="M623.95,359.99c0,9.9,0,19.8,0,29.71c0,0.57-0.03,1.14,0,1.7c0.08,1.11-0.34,1.65-1.52,1.62
			c-1.95-0.05-3.9-0.05-5.85,0c-1.2,0.03-1.58-0.56-1.51-1.64c0.03-0.49,0-0.97,0-1.46c0-19.97,0-39.93,0-59.9
			c0-0.57,0.02-1.14,0-1.7c-0.03-0.91,0.34-1.33,1.29-1.32c2.11,0.03,4.22,0.03,6.33,0c0.96-0.01,1.3,0.44,1.25,1.34
			c-0.03,0.57,0,1.14,0,1.7C623.95,340.03,623.95,350.01,623.95,359.99z"/>
		<path class="st68" d="M516.33,376.37c1.58-1.77,3.24-3.54,4.78-5.41c0.78-0.94,1.32-0.85,2.15-0.09c2.87,2.63,5.81,5.19,8.72,7.78
			c11.65,10.35,23.29,20.7,34.94,31.05c2.71,2.41,2.72,2.4,0.42,5.06c-0.8,0.92-1.61,1.83-2.43,2.72c-1.21,1.3-1.23,1.31-2.64,0.06
			c-10.08-8.94-20.15-17.89-30.22-26.83c-4.67-4.15-9.35-8.3-14-12.46C517.46,377.71,516.73,377.3,516.33,376.37z"/>
		<path class="st68" d="M594.27,396.05c-0.03,0.63-0.42,0.82-0.78,0.98c-2.08,0.91-4.19,1.76-6.26,2.7
			c-0.89,0.4-1.13-0.09-1.41-0.74c-0.89-2.09-1.81-4.17-2.71-6.25c-6.98-16.16-13.96-32.33-20.94-48.49
			c-0.13-0.3-0.25-0.6-0.39-0.89c-0.44-0.88-0.34-1.49,0.69-1.9c1.96-0.78,3.9-1.61,5.81-2.5c0.9-0.42,1.34-0.19,1.65,0.69
			c0.24,0.69,0.59,1.34,0.88,2.01c7.63,17.65,15.25,35.3,22.88,52.95C593.92,395.11,594.11,395.65,594.27,396.05z"/>
		<path class="st68" d="M750.55,416.34c0.06,0.4-0.07,0.65-0.41,0.81c-0.51,0.24-1.01,0.52-1.52,0.78
			c-17.04,8.51-34.08,17.03-51.11,25.54c-0.44,0.22-0.89,0.39-1.31,0.65c-0.66,0.4-1.06,0.15-1.36-0.45
			c-1.01-2.03-2.02-4.06-3.03-6.1c-0.37-0.74-0.11-1.22,0.62-1.54c0.52-0.23,1.01-0.52,1.52-0.77c16.6-8.3,33.2-16.61,49.82-24.88
			c3.52-1.75,2.81-1.9,4.54,1.42c0.6,1.15,1.16,2.32,1.74,3.48C750.23,415.63,750.39,416,750.55,416.34z"/>
		<path class="st68" d="M545.67,445.51c-0.51-0.24-1.17-0.54-1.82-0.86c-15.61-7.8-31.21-15.59-46.81-23.41
			c-1.14-0.57-2.84-0.79-3.21-1.98c-0.36-1.17,0.9-2.33,1.42-3.51c0.39-0.89,0.85-1.76,1.3-2.62c0.84-1.6,0.86-1.62,2.55-0.78
			c7.7,3.84,15.39,7.69,23.08,11.54c8.71,4.36,17.42,8.71,26.13,13.07c1.89,0.94,1.89,0.97,0.96,2.84c-0.79,1.6-1.58,3.2-2.4,4.79
			C546.64,445.01,546.46,445.52,545.67,445.51z"/>
		<path class="st68" d="M612.9,470.81c0.05-0.22,0.11-0.44,0.16-0.66C613.37,470.46,613.26,470.66,612.9,470.81z"/>
		<path class="st68" d="M626.08,567.26c0.12,0.15,0.25,0.3,0.37,0.44C626.14,567.72,626.03,567.56,626.08,567.26z"/>
		<path class="st68" d="M597.24,603.32c0.14,0.12,0.28,0.24,0.42,0.36C597.37,603.74,597.21,603.64,597.24,603.32z"/>
		<path class="st68" d="M668.42,472.64c-0.06,0.56-0.01,1.24,0.91,1.24c0.88,0,1.23-0.17,1.33-1.07c0.11-0.95,0.11-1.91,0.13-2.86
			c-0.75,0-1.5,0-2.24,0C668.54,470.84,668.51,471.74,668.42,472.64z"/>
		<path class="st68" d="M683.22,469.95c-0.08,0-0.17,0-0.25,0c-0.08,3.63-0.43,7.22-1.16,10.8c-0.6,2.91-1.37,5.76-2.25,8.58
			c-0.46,1.48-1.32,2.71-2.68,3.53c-0.83,0.5-1.69,0.66-2.6,0.27c-1.35-0.58-2.72-1.13-4.06-1.75c-0.89-0.41-1.81-0.78-2.69-1.2
			c-1.49-0.71-2.65-0.22-3.82,0.69c-1.16,0.9-1.75,2.21-2.47,3.39c-1.61,2.62-3.53,4.97-5.55,7.27c-1.31,1.48-1.26,2.45-0.04,3.97
			c0.92,1.15,2.05,2.08,3.04,3.15c0.83,0.9,1.46,0.92,2.58,0.39c0.6-0.28,1.11-0.66,1.56-1.14c1.34-1.44,2.57-2.96,3.77-4.51
			c0.7-0.91,0.64-1.43-0.12-1.91c-0.56-0.36-1.25-0.27-1.68,0.48c-0.41,0.71-1.03,1.21-1.46,1.89c-0.32,0.5-0.76,0.96-1.22,1.34
			c-0.76,0.62-1.62,0.87-2.48-0.17c-0.03-0.04-0.07-0.08-0.11-0.11c-2.19-1.69-1.64-2.46-0.14-4.24c1.73-2.05,3.21-4.25,4.59-6.52
			c0.77-1.26,1.37-1.52,2.85-0.85c1.91,0.87,3.75,1.91,5.58,2.96c1.58,0.91,1.95,2.33,1.54,4.12c-0.41,1.82-1.48,3.23-2.5,4.68
			c-2.63,3.72-5.65,7.09-9.05,10.13c-0.94,0.84-1.96,1.54-3.23,1.88c-2.12,0.58-3.27,0.32-4.43-1.42c-1.98-2.98-4.1-5.85-6.27-8.68
			c-1.34-1.75-1.2-4.17,0.47-5.7c1.59-1.47,3.12-3,4.53-4.66c2.75-3.24,5.01-6.78,6.68-10.69c0.44-1.03,0.95-1.95,1.77-2.74
			c0.85-0.82,1.86-1.08,2.9-0.82c1.8,0.45,3.55,1.12,5.34,1.64c0.95,0.28,1.94,0.51,2.92,0.61c1.43,0.14,3-1.3,3.46-2.91
			c1.1-3.85,1.53-7.78,1.58-11.74c-0.75,0-1.49,0-2.24,0c0,0.11,0.01,0.2,0,0.31c-0.12,3.17-0.36,6.34-1.13,9.44
			c-0.36,1.42-0.94,1.83-2.35,1.52c-2.05-0.44-4.09-0.87-6.14-1.31c-1.63-0.35-3.09-2.06-3.04-3.76c0.04-1.62,0.23-3.23,0.36-4.84
			c0.04-0.46,0.05-0.91,0.06-1.36c-6.31,0-12.62,0-18.92,0c-5.61,0-11.21,0.04-16.82-0.02c-1.66-0.02-2.89,0.49-4.07,1.69
			c-3.53,3.59-7.2,7.04-10.79,10.58c-0.62,0.61-1.42,1.1-1.76,2.28c11.49,3.51,22.97,7.01,34.98,10.68
			c-9.19,4.27-17.78,8.27-26.78,12.45c3.05,1.15,6.03,2.27,9,3.39c3.85-0.69,7.47-2.01,11.02-3.57c1.9-0.83,4.46-0.47,5.7,1.82
			c1.68,3.12,3.61,6.11,5.46,9.14c1.21,2,0.89,3.77-1,5.3c-1.05,0.85-2.25,1.46-3.46,1.98c-2.11,0.9-4.26,1.73-6.44,2.42
			c-2.36,0.75-4.73,1.42-7.22,1.76c-2.12,0.29-4.23,0.79-6.38,0.96c-0.06,0-0.13,0.01-0.19,0.01c0,0.05,0,0.09,0,0.14
			c0.07,10.8,0.03,21.61,0.04,32.41c0,1.3,0.07,2.59,0.1,3.89c0.12,0.15,0.25,0.3,0.37,0.44c3.89,0.3,7.79,0.02,11.69,0.15
			c1.16,0.04,1.58-0.44,1.71-1.51c0.38-3.14,0.82-6.27,1.24-9.41c1.04-7.88,2.09-15.76,3.08-23.65c0.21-1.67,0.82-2.61,2.53-3.29
			c14.45-5.8,24.87-15.94,31.63-29.89c4.18-8.64,6.56-17.78,7.42-27.33C685.99,469.95,686.08,469.95,683.22,469.95z"/>
		<path class="st68" d="M614.98,529.14c-0.6-0.68-0.78-1.51-0.66-2.41c0.26-2.06,0.48-4.12,0.74-6.18c0.27-2.13-0.32-3.24-2.29-4.26
			c-0.75-0.39-1.54-0.62-2.36-0.83c-3.38-0.85-6.73-1.79-9.85-3.43c-1.52-0.8-2.92-0.25-3.73,1.33c-0.46,0.9-0.94,1.79-1.48,2.64
			c-1.65,2.6-0.77,3.57,1.42,4.84c1.51,0.88,3.28,1.3,4.89,2.02c0.4,0.18,0.76,0.21,1.15,0.25c0.53,0.06,1.05-0.01,1.11-0.7
			c0.06-0.62,0.07-1.28-0.73-1.43c-1.23-0.23-2.3-0.84-3.42-1.34c-1.5-0.67-1.71-1.32-1.1-2.87c0.13-0.32,0.23-0.66,0.39-0.96
			c0.52-0.96,1.28-1.33,2.26-0.86c2.41,1.17,5.06,1.58,7.52,2.56c0.31,0.12,0.69,0.05,1.04,0.1c1.73,0.23,2.32,1.2,1.91,2.85
			c-0.37,1.47-0.62,2.98-0.85,4.48c-0.08,0.49-0.23,0.97-0.3,1.45c-0.31,1.94-2.15,2.78-3.72,2.78c-2.08,0-4.01-0.67-5.94-1.3
			c-4.13-1.34-8-3.29-11.75-5.45c-1.13-0.65-2.16-1.6-2.8-2.87c-0.69-1.38-0.61-2.48,0.31-3.73c2.24-3.02,4.45-6.06,6.66-9.1
			c1.15-1.58,2.77-2.15,4.57-1.47c0.97,0.37,1.87,0.9,2.79,1.38c0.47,0.25,0.94,0.49,1.42,0.74c7.08-3.3,14.2-6.61,21.59-10.05
			c-9.6-3.34-18.96-6.04-28.16-9.3c0.21-0.42,0.25-0.59,0.36-0.7c5.63-5.5,11.27-11,16.91-16.5c0.05-0.22,0.11-0.44,0.16-0.66
			c-0.86-0.32-1.77-0.19-2.65-0.2c-4.79-0.04-9.59-0.06-14.38-0.08c-5.92-0.02-11.84-0.04-17.76-0.06c0.05,1.77,0.18,3.54,0.39,5.32
			c0.2,1.73,0.6,3.41,0.84,5.12c0.25,1.76-0.61,3.36-2.3,3.94c-2.03,0.69-4.05,1.43-6.06,2.17c-2.05,0.75-2.82,1.33-2.79,4.04
			c0.01,0.77,0.16,1.54,0.47,2.21c1.9,4.11,4.27,7.95,6.99,11.56c0.3,0.4,0.68,0.82,1.22,1.08c1.46,0.72,1.95,0.69,3.12-0.39
			c1.03-0.95,2.08-1.88,3.13-2.81c0.99-0.87,1.19-1.61,0.68-2.81c-0.18-0.41-0.43-0.8-0.7-1.17c-0.88-1.23-1.78-2.44-2.66-3.66
			c-0.58-0.81-1.03-1-1.83-0.72c-0.73,0.26-0.85,0.5-0.44,1.2c0.5,0.85,1.07,1.66,1.61,2.49c0.22,0.34,0.48,0.65,0.66,1.01
			c0.47,0.95,0.33,1.49-0.51,2.2c-0.35,0.29-0.66,0.62-1.02,0.89c-1.04,0.78-1.74,0.69-2.59-0.3c-1.28-1.49-2.21-3.22-3.23-4.88
			c-0.79-1.29-1.44-2.67-2.06-4.05c-0.71-1.57-0.38-2.15,1.17-2.96c1.54-0.8,3.2-1.33,4.78-2.04c2.63-1.18,4.46-0.85,6.1,1.86
			c1.14,1.88,2.19,3.81,3.56,5.55c0.87,1.1,1.74,2.18,2.7,3.2c0.66,0.7,1.14,1.46,1.51,2.38c0.58,1.41,0.35,2.6-0.57,3.65
			c-1.56,1.77-3.07,3.57-4.67,5.31c-0.84,0.91-1.69,1.86-2.42,2.87c-2.09,2.87-4.39,2.05-6.36,0.57c-1.9-1.43-3.31-3.38-4.81-5.22
			c-2.06-2.52-3.89-5.21-5.44-8.06c-1.56-2.88-3.09-5.79-4.15-8.9c-0.54-1.58-1.31-3.1-1.28-4.83c0.01-0.56-0.03-1.12,0.02-1.67
			c0.16-1.73,0.93-2.7,2.59-3.1c1.94-0.46,3.89-0.89,5.85-1.2c2.42-0.38,3.54-1.3,3.8-4.56c0.07-0.85-0.03-1.72-0.13-2.58
			c-0.1-0.92-0.15-1.83-0.17-2.75c-0.74,0-1.48,0-2.22-0.01c0.01,1.41,0.08,2.82,0.26,4.22c0.07,0.57,0,1.11-0.26,1.62
			c-0.19,0.38-0.46,0.63-0.92,0.69c-2.08,0.3-4.17,0.54-6.22,0.96c-2.61,0.54-4.57-1.04-4.91-4.1c-0.13-1.14-0.08-2.29-0.05-3.44
			c-0.41,0-0.81,0-1.22,0c-2.02-0.01-2.04,0.03-2.01,1.99c0.06,3.83,0.66,7.6,1.5,11.32c3.53,15.76,11.3,28.91,24.16,38.88
			c4.84,3.76,10.14,6.74,15.76,9.14c1.2,0.51,1.77,1.18,1.94,2.46c0.81,6.11,1.68,12.21,2.54,18.31c0.65,4.66,1.32,9.31,1.99,13.97
			c0.29,1.98,0.31,2.01,2.26,2.02c3.41,0.01,6.82-0.05,10.24-0.02c1.11,0.01,1.71-0.29,1.58-1.51c-0.06-0.56-0.01-1.14-0.01-1.7
			c0-11.3,0.03-22.6-0.04-33.9c0,0,0,0,0,0C616.62,530.42,615.69,529.95,614.98,529.14z"/>
		<path class="st68" d="M567.59,446.43c3.37,1.37,6.73,2.74,10.04,4.25c1.04,0.47,2.18,0.63,3.35,0.11c1.02-0.46,1.75-1.18,2.27-2.1
			c1.92-3.44,4.29-6.55,6.91-9.48c1.99-2.23,1.55-3.77,0.26-5.48c-1.36-1.8-2.93-3.43-4.36-5.16c-0.44-0.54-1-0.59-1.65-0.35
			c-0.54,0.21-0.95,0.56-1.35,0.95c-2.13,2.07-4.2,4.2-5.91,6.64c-1.62,2.31-1.7,2.23,0.67,3.87c1.21,0.83,2.1,0.64,3.03-0.53
			c0.63-0.79,1.27-1.57,1.94-2.32c0.41-0.45,1.5-0.56,1.76-0.16c0.35,0.52,0.38,1.03-0.11,1.62c-1.1,1.35-2.09,2.79-3.12,4.2
			c-1.04,1.42-2.28,1.65-3.77,0.73c-1.12-0.69-2.26-1.34-3.39-2.02c-1.39-0.84-1.69-1.64-1.18-3.15c0.18-0.53,0.49-0.99,0.8-1.45
			c2.21-3.32,4.83-6.28,7.69-9.04c0.57-0.55,1.13-1.15,1.81-1.54c2.07-1.19,4.01-1.07,5.16,0.35c1.45,1.79,2.82,3.66,4.2,5.51
			c1,1.35,2.32,1.83,3.9,1.45c1.23-0.3,2.28-0.96,3.36-1.57c2.77-1.56,5.65-2.88,8.7-3.77c2.55-0.75,5.17-1.16,7.8-1.53
			c2.71-0.38,4.76-1.31,4.55-5.12c-0.09-1.56-0.01-3.14-0.01-4.71c0-1.92-0.01-3.85,0-5.77c0.01-1.4-0.6-2.37-1.89-2.94
			c-1.35-0.6-2.73-0.92-4.22-0.78c-4.8,0.47-9.47,1.56-14.07,2.96c-1.75,0.53-3.44,1.23-4.75,2.59c-1.21,1.25-1.63,2.93-0.77,4.31
			c1.03,1.67,1.67,3.51,2.6,5.22c0.76,1.39,1.27,1.59,2.75,1.07c2.54-0.9,5-2.05,7.67-2.59c0.57-0.12,1.1-0.43,1.67-0.59
			c0.66-0.18,1.01-0.85,0.88-1.22c-0.23-0.65-0.1-1.28-0.23-1.91c-0.23-1.03-0.69-1.47-1.77-1.47c-0.5,0-1.01,0.08-1.49,0.2
			c-0.92,0.23-1.82,0.52-2.74,0.77c-0.24,0.07-0.5,0.1-0.75,0.1c-0.67,0-0.95-0.5-1.1-1.02c-0.15-0.52,0.22-0.82,0.69-1
			c2.32-0.87,4.71-1.44,7.15-1.77c0.25-0.03,0.51-0.03,0.76,0.01c1.41,0.23,1.59,0.51,2.03,1.9c0.4,1.27,0.47,2.57,0.66,3.86
			c0.35,2.34-0.23,3.12-2.56,3.67c-2.09,0.49-4.17,1.01-6.18,1.76c-1.66,0.62-3.32,1.27-4.99,1.86c-1.98,0.71-4.01,0.05-4.9-1.54
			c-1.06-1.89-2.11-3.79-3.27-5.63c-1.08-1.7-2.11-2.25-3.99-1.79c-1.12,0.28-2.17,0.75-3.13,1.41c-3.45,2.35-6.56,5.12-9.41,8.14
			c-3.35,3.56-6.2,7.53-8.67,11.75c-0.72,1.24-1.37,2.54-1.54,4.04C565.16,444.17,565.82,445.71,567.59,446.43z"/>
		<path class="st68" d="M571.18,465.06c0.02-0.4,0.02-0.81-0.06-1.21c-0.13-0.71-0.55-1.18-1.32-1.25c-0.3-0.03-0.6-0.06-0.9-0.11
			c-1.95-0.29-2.54,0.17-2.7,2.18c-0.1,1.21-0.15,2.42-0.22,3.64c-0.04,0.69-0.32,1.17-1.08,1.2c-0.67,0.03-1.02-0.34-1.11-1.15
			c-0.02-0.15,0-0.3-0.01-0.46c-0.09-2.23,0.29-4.44,0.38-6.66c0.06-1.46,1.42-2.61,2.74-2.36c1.66,0.32,3.32,0.62,4.99,0.9
			c0.98,0.16,1.47,0.8,1.7,1.71c0.14,0.55,0.13,1.09,0.07,1.65c-0.22,2.21-0.4,4.43-0.36,6.65c1.66,0.01,3.31,0.01,4.97,0.02
			c-0.09-3.57,0.18-7.12,1.03-10.65c0.41-1.69-0.47-3.93-1.77-4.33c-1.19-0.37-2.3-0.96-3.5-1.24c-2.86-0.67-5.57-1.79-8.36-2.65
			c-1.49-0.46-2.5-0.31-3.55,0.82c-1.08,1.16-1.68,2.56-1.96,4.1c-0.77,4.22-1.35,8.47-1.16,12.77c0,0.37-0.01,0.74-0.02,1.11
			c4.03,0.01,8.06,0.03,12.09,0.04C571.06,468.21,571.12,466.64,571.18,465.06z"/>
		<path class="st68" d="M668.63,466.26c0.07-1.07,0.78-1.9,1.85-2.03c1.76-0.21,3.53-0.32,5.29-0.46c0.87-0.06,1.47,0.4,1.78,1.15
			c0.24,0.59,0.49,1.2,0.51,1.86c0.03,1.05,0.04,2.1,0.03,3.15c1.62,0,3.25,0,4.87,0c0.01-0.35,0.03-0.69,0.03-1.04
			c0.02-2.53-0.1-5.06-0.43-7.57c-0.18-1.38-0.63-2.7-1.3-3.92c-0.75-1.38-2.07-1.98-3.58-1.61c-2.13,0.52-4.27,1.01-6.4,1.49
			c-1.7,0.38-3.36,0.95-5.12,1.07c-0.5,0.04-0.92,0.27-1.31,0.6c-1.43,1.18-1.79,2.72-1.58,4.47c0.26,2.17,0.41,4.33,0.34,6.51
			c1.64,0,3.28,0,4.92,0C668.56,468.72,668.55,467.49,668.63,466.26z"/>
		<path class="st68" d="M672.25,467.27c-0.59,0.13-0.99,0.45-1.22,1.02c-0.2,0.48-0.23,0.98-0.24,1.49c0,0.06,0,0.11,0,0.17
			c1.69,0,3.38,0,5.08,0C675.88,467.41,674.88,466.71,672.25,467.27z"/>
		<path class="st68" d="M628.41,426.97c1.78,0.39,3.58,0.7,5.31,1.3c2.05,0.71,4.13,1.37,6.07,2.35c1.51,0.77,3.39,0.58,4.53-0.62
			c1.74-1.84,2.78-4.16,4.13-6.27c0.71-1.12,0.41-2.06-0.73-2.75c-0.46-0.28-0.99-0.43-1.47-0.69c-2.55-1.39-5.19-2.57-8.03-3.27
			c-1.73-0.42-1.71-0.41-2.44,1.14c-0.3,0.65-0.31,1.35-0.36,2.03c-0.02,0.31,0.05,0.72,0.44,0.89c0.54,0.24,0.94,0.66,1.53,0.88
			c0.96,0.36,2.02,0.44,2.88,1.12c0.39,0.31,0.52,0.6,0.38,1.01c-0.14,0.43-0.33,0.88-0.9,0.88c-0.4,0-0.79-0.03-1.19-0.15
			c-0.74-0.23-1.47-0.54-2.15-0.85c-0.96-0.44-2.03-0.52-2.94-1.07c-1.25-0.76-1.55-1.42-1.36-2.86c0.18-1.4,0.68-2.71,0.82-4.13
			c0.13-1.38,1.08-2.02,2.5-2.08c0.55-0.02,1.08,0.13,1.62,0.3c2.74,0.9,5.45,1.85,8.1,3c1.71,0.74,3.42,1.53,4.87,2.71
			c2.02,1.66,2.82,3.75,0.96,6c-1.18,1.43-2.13,3.03-3.21,4.54c-1.39,1.94-1.31,3.86,0.42,5.56c1.15,1.13,2.28,2.29,3.45,3.41
			c2.24,2.14,4.05,4.6,5.69,7.2c1.14,1.82,2.01,3.8,2.99,5.71c1.2,2.37,3.15,3.06,5.55,2.01c0.19-0.08,0.37-0.12,0.56-0.18
			c3.31-1.07,6.64-2.08,9.93-3.21c1.24-0.42,1.78-1.17,2.13-2.26c0.27-0.84,0.19-1.69,0.03-2.55c-0.28-1.55-1.07-2.9-1.73-4.29
			c-1.97-4.15-4.44-8.01-7.31-11.6c-0.6-0.75-1.27-1.45-2.1-1.96c-1.73-1.07-3.12-0.92-4.73,0.32c-1.61,1.24-2.85,2.86-4.33,4.22
			c-1.13,1.04-1.13,1.96-0.06,3.13c1.9,2.09,3.59,4.33,5.09,6.73c0.19,0.3,0.39,0.59,0.62,0.86c0.52,0.58,1.2,0.91,1.89,0.49
			c0.9-0.54,2.13-0.76,2.46-2c0.09-0.35-0.01-0.71-0.17-1.03c-0.18-0.36-0.35-0.73-0.57-1.07c-0.63-0.98-1.28-1.94-1.92-2.92
			c-0.5-0.77-0.36-1.22,0.5-1.37c0.71-0.12,1.34-0.03,1.81,0.72c0.84,1.37,1.74,2.71,2.54,4.11c0.45,0.79,0.94,1.55,1.08,2.47
			c0.19,1.2-0.16,1.89-1.25,2.46c-1.41,0.74-2.94,1.23-4.31,2.06c-0.79,0.48-1.57,0.29-2.26-0.24c-0.52-0.4-0.91-0.88-1.25-1.47
			c-1.52-2.61-3.14-5.14-5.17-7.41c-0.95-1.06-2-2.12-2.4-3.59c-0.33-1.25-0.49-2.42,0.5-3.51c0.33-0.37,0.68-0.72,1.02-1.09
			c1.3-1.4,2.6-2.81,3.88-4.23c0.87-0.96,1-2.08,0.53-3.25c-0.5-1.23-1.27-2.31-2.34-3.09c-1.69-1.23-3.41-2.44-5.18-3.56
			c-3.17-2.02-6.55-3.65-10.09-4.91c-1.48-0.53-2.91-1.22-4.45-1.59c-2.07-0.49-4.1-1.18-6.22-1.49c-1.61-0.24-3.23-0.35-4.73,0.45
			c-0.78,0.42-1.59,0.92-1.68,1.94c-0.35,3.83-0.67,7.66-0.97,11.22C624.95,424.75,625.89,426.41,628.41,426.97z"/>
		<path class="st68" d="M630.22,524.88c-0.83,0-1.65-0.24-2.35-0.71c-0.99-0.67-1.66-1.72-1.82-2.9c-0.19-1.35,0.01-6.27-0.16-9.33
			l-6.07-4.34c6.07-0.87,5.99-0.73,6.94-0.87c0.95-0.13,4.77,1.75,4.34,2.6c-0.87,1.74-2.27,1.39-2.1,4.45
			c0.16,2.85,0.32,5.79,0.49,6.99c0.04,0.29,0.22,0.44,0.32,0.51c0.1,0.07,0.32,0.17,0.6,0.1l11.38-2.87
			c0.27-0.07,0.41-0.25,0.47-0.36c0.06-0.1,0.14-0.32,0.06-0.59l-0.34-1.1c-0.12-0.39-0.07-1.19-0.45-1.07l-3.47,0.87
			c-0.91,0.29-2.6,0.87-2.79-0.29c-0.09-0.59,0.22-1.89,1.14-2.17l3.6-1.13c4.12-0.74,3.43-0.36,4.12,1.86
			c0.29,0.58,0.58,1.16,0.87,1.74c0.1,0.23,0.78,1.78,0,3.47c-0.7,1.52-2.08,2.05-2.35,2.14l-11.38,2.87
			C630.91,524.84,630.57,524.88,630.22,524.88z"/>
	</g>
	<g>
		<path class="st55" d="M965.13,560.28c6.05-14.04,6.67-27.09,1.84-38.76c-9.56-23.1-26.38-35.35-41.22-46.16
			c-2.71-1.98-5.4-3.94-8-5.93h-93.33c-19.92,0-36.06,16.14-36.06,36.06v124.82c0,19.47,15.44,35.33,34.74,36.03
			C896.07,637.28,948.91,597.93,965.13,560.28z"/>
		<path class="st55" d="M998.69,469.42h-69.3c0.15,0.11,0.29,0.21,0.44,0.32c15.58,11.35,33.24,24.21,43.55,49.12
			c5.58,13.47,4.94,28.33-1.88,44.16c-8.46,19.62-26.5,40.11-52.19,59.27c-21.68,16.17-47.92,30.94-78.21,44.07h157.58
			c19.92,0,36.06-16.14,36.06-36.06V505.48C1034.75,485.57,1018.61,469.42,998.69,469.42z"/>
		<path class="st55" d="M900.77,428.3l-6.94-0.14c-0.41,19.75,10.56,31.01,23.92,41.27h11.64
			C913.13,457.58,900.36,448.09,900.77,428.3z"/>
	</g>
	<g>
		<g>
			<path class="st55" d="M909.54,354.65c-0.13,0-0.25,0-0.38,0c-5.43-0.03-14.51-0.08-21.65-7.08c-8.34-8.17-7.56-19.34-7.44-20.59
				c0.44-4.74,2.08-9.17,4.73-12.8c6.4-8.76,16.51-10.24,19.83-10.72c4.73-0.69,9.51-0.37,14.22,0.94
				c1.94,0.43,22.13,5.34,22.79,23.36c0.28,7.69-3.05,13.33-3.72,14.38C934.28,347.86,926.4,354.65,909.54,354.65z M909.51,309.54
				c-1.32,0-2.63,0.1-3.94,0.29c-2.94,0.43-10.75,1.57-15.55,8.15c-1.97,2.7-3.19,6.02-3.52,9.6c-0.04,0.38-0.78,9.19,5.53,15.39
				c5.28,5.17,12.16,5.21,17.18,5.24c0.11,0,0.23,0,0.34,0c13.93,0,20.16-5.17,22.94-9.53c0.3-0.47,2.93-4.78,2.72-10.68
				c-0.49-13.54-17.61-17.27-17.78-17.31l-0.22-0.05C914.64,309.91,912.07,309.54,909.51,309.54z"/>
		</g>
		<g>
			<g>
				<g>
					<path class="st52" d="M910.37,335.07c-2.86,0-5.72-1.28-8.52-3.81l1.01-1.12c2.73,2.46,5.48,3.6,8.15,3.39
						c3.8-0.3,6.24-3.27,6.27-3.3l1.18,0.94c-0.11,0.14-2.85,3.5-7.3,3.86C910.89,335.06,910.63,335.07,910.37,335.07z"/>
					<path class="st55" d="M910.37,336.36c-3.18,0-6.34-1.39-9.39-4.14l-0.96-0.86l2.74-3.03l0.96,0.86
						c2.45,2.21,4.88,3.25,7.19,3.06c3.2-0.25,5.34-2.8,5.36-2.83l0.81-0.98l3.17,2.53l-0.79,1c-0.13,0.16-3.16,3.94-8.21,4.35
						C910.97,336.35,910.67,336.36,910.37,336.36z"/>
				</g>
			</g>
			<g>
				<g>
					<path class="st52" d="M923.07,334.49c-2.4,0-4.66-1.29-5.86-3.42l-0.1-0.17v-7.97l0.32-0.23c3.69-2.64,2.81-8.07,2.8-8.12
						l1.49-0.26c0.04,0.25,1.02,6.12-3.09,9.37v6.81c1.11,1.81,3.22,2.78,5.32,2.41c2.17-0.37,3.88-2.08,4.26-4.26l1.49,0.26
						c-0.48,2.8-2.69,5.01-5.49,5.49C923.82,334.46,923.45,334.49,923.07,334.49z"/>
					<path class="st55" d="M923.07,335.78c-2.89,0-5.57-1.56-6.99-4.08l-0.26-0.47v-8.97l0.85-0.61c3-2.14,2.28-6.81,2.28-6.86
						l-0.2-1.26l4.01-0.7l0.22,1.27c0.05,0.27,1.05,6.41-3.07,10.18v5.82c0.87,1.18,2.37,1.79,3.81,1.54
						c1.64-0.28,2.93-1.57,3.21-3.21l0.22-1.27l4.03,0.69l-0.22,1.27c-0.57,3.34-3.2,5.97-6.54,6.54
						C923.97,335.75,923.52,335.78,923.07,335.78z"/>
				</g>
			</g>
			<g>
				<g>
					
						<rect x="913.23" y="313.89" transform="matrix(0.7105 -0.7037 0.7037 0.7105 39.854 735.6704)" class="st52" width="1.51" height="11.02"/>
					<polygon class="st55" points="917.32,325.67 907.75,316.01 910.66,313.13 920.23,322.8 					"/>
				</g>
			</g>
		</g>
		<g>
			<path class="st55" d="M890.89,296.33c1.37,5.32-0.37,10.43-4.02,12.69c-3.45,2.14-7.35,0.95-8.22,0.68
				c-7.23-2.21-9.1-10.85-9.18-11.28c4.3,4.3,10.29,5.79,15.15,3.79C888.34,300.68,890.22,297.59,890.89,296.33z"/>
		</g>
		<g>
			<path class="st55" d="M939.86,292.83c0.95,5.32-0.25,10.43-2.78,12.69c-2.39,2.14-5.09,0.95-5.69,0.68
				c-5-2.21-6.3-10.85-6.36-11.28c2.98,4.3,7.13,5.79,10.49,3.79C938.1,297.19,939.4,294.09,939.86,292.83z"/>
		</g>
	</g>
</g>
<text transform="matrix(1 0 0 1 156.6831 833.3877)"><tspan x="0" y="0" class="st90 st91 st92">Competitive </tspan><tspan x="427.28" y="0" class="st93 st91 st92">Programming</tspan></text>
<text transform="matrix(1 0 0 1 422.0195 932.8281)" class="st94 st91 st95"> UNSAAC</text>
</svg>
